# xmcd CD database file
#
# Track frame offsets:
#	150
#	12883
#	27694
#	44312
#	65522
#	79872
#	93248
#	107974
#	121750
#	138247
#	152829
#	165932
#	178050
#	191916
#
# Disc length: 2745 seconds
#
# Revision: 2
# Processed by: cddbd v1.5.2PL0 Copyright (c) Steve Scherf et al.
# Submitted via: CDex 2.21
#
DISCID=b60ab70e
DTITLE=Divas of Jazz - Divas of Jazz - Vol. 1
DYEAR=2007
DGENRE=Jazz
TTITLE0=Cry Me A River - Julie London
TTITLE1=The Girl From Ipanema - Astrud Gilberto
TTITLE2=Everytime We Say Goodbye - Lena Horne
TTITLE3=The MasqueradeIs Over - Carmen McRae
TTITLE4=Blue Moon - Helen Ward
TTITLE5=I Only Have Eyes For You - Carol Sloane
TTITLE6=Blues In The Night - Peggy Lee
TTITLE7=Stormy Weather - Dinah Washington
TTITLE8=Moonlight In Vermont - Ella Fitzgerald
TTITLE9=Loverman - Billie Holiday
TTITLE10=Georgia On My Mind - Anita O'Day
TTITLE11=I Believe - Mahalia Jackson
TTITLE12=You Got To My Head - Sarah Vaughan
TTITLE13=Sophisticated Lady - Dinah Shore
EXTD=YEAR: 2007
EXTT0=
EXTT1=
EXTT2=
EXTT3=
EXTT4=
EXTT5=
EXTT6=
EXTT7=
EXTT8=
EXTT9=
EXTT10=
EXTT11=
EXTT12=
EXTT13=
PLAYORDER=
